<?xml version="1.0" standalone="no"?>
<!DOCTYPE svg PUBLIC "-//W3C//DTD SVG 20010904//EN"
 "http://www.w3.org/TR/2001/REC-SVG-20010904/DTD/svg10.dtd">
<svg version="1.0" xmlns="http://www.w3.org/2000/svg"
 width="260.000000pt" height="260.000000pt" viewBox="0 0 260.000000 260.000000"
 preserveAspectRatio="xMidYMid meet">
<metadata>
Created by potrace 1.11, written by Peter Selinger 2001-2013
</metadata>
<g transform="translate(0.000000,260.000000) scale(0.100000,-0.100000)"
fill="#000000" stroke="none">
<path d="M1152 2523 c-7 -3 -19 -18 -27 -34 -14 -25 -14 -33 -1 -63 17 -40
113 -139 181 -186 172 -118 398 -155 610 -98 67 17 114 46 121 73 10 39 -4 73
-36 90 -35 18 -29 18 -82 -1 -150 -54 -302 -49 -437 14 -82 38 -131 74 -198
146 -61 66 -87 77 -131 59z"/>
<path d="M746 2409 c-43 -34 -34 -74 44 -186 121 -175 304 -322 501 -403 38
-16 118 -41 177 -56 92 -24 128 -28 252 -28 196 -1 335 29 492 104 93 45 103
54 103 101 0 31 -6 45 -24 58 -31 24 -62 20 -137 -17 -221 -109 -480 -127
-724 -51 -217 68 -436 239 -548 429 -14 25 -33 50 -42 57 -23 19 -64 15 -94
-8z"/>
<path d="M420 2191 c-38 -37 -33 -62 27 -155 109 -168 240 -308 391 -416 82
-58 94 -72 123 -130 83 -172 128 -383 127 -590 -1 -74 -5 -148 -9 -165 -4 -16
-10 -46 -12 -65 -15 -115 -91 -318 -161 -429 -29 -45 -30 -95 -4 -113 54 -36
87 -32 122 16 54 71 163 334 181 435 2 14 9 50 15 80 9 48 19 134 24 202 4 62
205 283 354 389 150 107 365 202 517 229 33 6 76 13 95 16 39 7 124 13 188 14
81 2 119 75 66 128 -26 26 -26 26 -152 19 -190 -9 -407 -64 -563 -141 -74 -37
-104 -38 -280 -9 -56 9 -208 57 -284 90 -254 110 -490 315 -622 541 -52 88
-94 104 -143 54z m810 -777 c41 -14 110 -34 154 -44 43 -11 80 -21 82 -23 3
-2 -11 -15 -30 -28 -19 -13 -71 -60 -115 -104 -94 -94 -93 -94 -96 -75 -2 8
-6 35 -10 59 -6 40 -45 183 -60 224 -9 21 -14 22 75 -9z"/>
<path d="M181 1893 c-24 -20 -33 -60 -19 -85 4 -10 42 -43 84 -73 229 -169
366 -387 418 -662 13 -68 14 -288 2 -339 -24 -108 -55 -197 -97 -279 -27 -54
-49 -108 -49 -120 0 -49 80 -83 122 -52 36 28 134 240 153 334 53 253 45 444
-26 658 -78 235 -250 460 -453 596 -63 43 -102 49 -135 22z"/>
<path d="M50 1508 c-27 -29 -26 -73 3 -101 13 -12 45 -42 71 -66 182 -169 233
-454 120 -673 -20 -39 -18 -56 15 -88 31 -32 70 -33 103 -3 17 15 63 121 72
165 3 13 9 45 14 71 24 122 -4 310 -65 432 -52 102 -144 213 -223 268 -35 24
-85 22 -110 -5z"/>
<path d="M2427 1275 c-1 -1 -40 -5 -87 -8 -506 -34 -947 -427 -1041 -927 -6
-30 -13 -94 -16 -142 -5 -83 -4 -88 21 -113 50 -50 125 -14 127 62 2 69 8 127
20 178 74 331 305 602 614 723 117 46 173 58 295 67 119 9 137 14 154 40 21
32 20 57 -4 87 -16 21 -71 42 -83 33z"/>
<path d="M2285 878 c-269 -53 -465 -210 -562 -449 -14 -34 -27 -73 -29 -88 -3
-14 -8 -39 -13 -56 -11 -44 5 -92 37 -108 29 -14 36 -15 68 -4 24 8 37 36 54
117 44 202 210 372 415 425 32 8 71 15 85 15 55 0 95 52 78 103 -16 45 -59 60
-133 45z"/>
</g>
</svg>
